<!-- Generator: Adobe Illustrator 18.1.0, SVG Export Plug-In  -->
<svg version="1.1"
	 xmlns="http://www.w3.org/2000/svg" xmlns:xlink="http://www.w3.org/1999/xlink" xmlns:a="http://ns.adobe.com/AdobeSVGViewerExtensions/3.0/"
	 x="0px" y="0px" width="10px" height="10px" viewBox="0 0 10 10" overflow="scroll" enable-background="new 0 0 10 10"
	 xml:space="preserve">
<defs>
</defs>
<path id="Close_icone_1_" fill="#9E9E9E" d="M0.8,9.9C0.6,10,0.3,10,0.1,9.9S0,9.4,0.1,9.2L4.3,5L0.1,0.8C0,0.6,0,0.3,0.1,0.1
	C0.3,0,0.6,0,0.8,0.1L5,4.3l4.2-4.2c0.2-0.2,0.5-0.2,0.7,0s0.2,0.5,0,0.7L5.7,5l4.2,4.2c0.2,0.2,0.2,0.5,0,0.7
	C9.7,10,9.4,10,9.2,9.9L5,5.7L0.8,9.9z"/>
</svg>
